<?xml version="1.0" encoding="utf-8"?>
<!-- Generator: Adobe Illustrator 25.2.0, SVG Export Plug-In . SVG Version: 6.00 Build 0)  -->
<svg version="1.2" baseProfile="tiny" xmlns="http://www.w3.org/2000/svg" xmlns:xlink="http://www.w3.org/1999/xlink" x="0px"
	 y="0px" viewBox="0 0 1024 1024" overflow="visible" xml:space="preserve">
<g id="Layer_1" display="none">
	<g display="inline">
		<rect fill="#47B1E4" width="5" height="1024"/>
		<rect x="1019" fill="#47B1E4" width="5" height="1024"/>
		
			<rect x="509.5" y="-509.5" transform="matrix(-1.836970e-16 1 -1 -1.836970e-16 514.5 -509.5)" fill="#47B1E4" width="5" height="1024"/>
		
			<rect x="509.5" y="509.5" transform="matrix(-1.836970e-16 1 -1 -1.836970e-16 1533.5 509.5)" fill="#47B1E4" width="5" height="1024"/>
	</g>
</g>
<g id="Layer_2">
	<g>
		<path fill="#385723" stroke="#182D07" stroke-width="1.1177" stroke-miterlimit="10" d="M576,104.5c0,0,6.3-3-3.1-6.7l-19.7-7.5
			c0,0-3.2-2.4-7.4,0c0,0-4.1,2.1-6.4-0.8c0,0,4.6,5.4,15.7,5.8"/>
		<path fill="#CC0000" stroke="#FFC600" stroke-width="4.0199" stroke-miterlimit="10" d="M170.4,888.4
			c55.4,42.1,360.9,251,672.1,4.1c4.5-3.5,5.2-10.1,1.6-14.5l-56.7-70.2c-3.5-4.3-9.8-5.1-14.2-1.7
			c-259.6,196.6-485.7,34.7-528.6,0.1c-4.2-3.4-10.3-3-14,1l-61.6,66.1C165,877.7,165.6,884.7,170.4,888.4z"/>
		<g>
			<path fill="#00B0F0" stroke="#000000" stroke-width="1.0905" stroke-miterlimit="10" d="M298.7,306.9c-9.4,0-18.3,0-27.6,0
				c1-5.1,2-9.9,3-15c-0.9,0.3-1.5,0.5-2.1,0.8c-28.2,14.1-55.4,30-80.4,49.4c-7.6,5.9-14.9,12.1-20.7,20c-2.3,3.2-4.5,6.5-4.5,10.7
				c0,3.6,1.6,5.3,5.2,5.6c5,0.4,9.7-1.3,14.2-3c16.2-6.3,31.2-14.8,45.8-24.1c21.9-14,43.5-28.5,65.2-42.8
				C297.3,308,297.8,307.6,298.7,306.9z"/>
			<path fill="#00B0F0" stroke="#000000" stroke-width="1.0905" stroke-miterlimit="10" d="M317.1,316.8c-3.9-0.2-7.8-0.5-11.9-0.7
				c-0.3-2.7-0.6-5.5-1-8.7c-1.3,0.9-2.3,1.5-3.2,2.2c-26.2,18.2-52.6,36-80.2,51.9c-4.2,2.4-8.4,4.7-12.6,7
				c-3.1,1.7-4.8,7.6-2.9,10.6c1.4,2.3,3.8,2.6,6,2c4.8-1.3,9.6-2.6,14.1-4.6c15.4-7,29.8-16.1,43.8-25.6
				c16.2-10.9,32.2-22.2,48.2-33.3C317.2,317.3,317.2,317,317.1,316.8z"/>
			<path fill="#00B0F0" stroke="#000000" stroke-width="1.0905" stroke-miterlimit="10" d="M341.7,326.2c-2.3,0.2-4.6,0.3-6.9,0.7
				c-2,0.3-3.2-0.1-3.7-2.3c-0.5-2-1.5-3.9-2.4-6.1c-0.9,0.6-1.7,1.1-2.5,1.7c-22.7,16.7-45.6,33-69.7,47.6c-5.1,3.1-10.3,6-15.5,9
				c-3,1.7-4.6,7.6-2.7,10.5c1.4,2.2,3.6,2.4,5.8,1.9c2.7-0.5,5.5-1.2,8.1-2.3c12.4-5,23.7-12.1,34.5-19.8
				c18.3-13,36.3-26.4,54.4-39.7c0.3-0.2,0.5-0.5,0.8-0.7C341.7,326.6,341.7,326.4,341.7,326.2z"/>
			<path fill="#00B0F0" stroke="#000000" stroke-width="1.0905" stroke-miterlimit="10" d="M361.8,335.1c-3.2,0-5.9-0.1-8.6,0
				c-1.7,0.1-2.6-0.3-3.1-2.1c-0.5-2.1-1.4-4.1-2.2-6.5c-1,0.7-1.9,1.3-2.7,1.9c-21,16.4-42.2,32.3-64.7,46.7
				c-2.7,1.8-5,7.7-4.2,10.9c0.6,2.3,2.4,3.7,5.3,3c3.2-0.7,6.5-1.7,9.5-3.1c13.5-6.6,25.5-15.4,37.4-24.5
				c10.7-8.2,21.2-16.7,31.8-25C360.7,336.1,361.1,335.7,361.8,335.1z"/>
			<path fill="#00B0F0" stroke="#000000" stroke-width="1.0905" stroke-miterlimit="10" d="M385,341.5c-4.1,0-7.8,0-11.9,0
				c-0.4-3.1-0.8-6.2-1.3-9.9c-2.6,2.1-4.9,4-7.3,5.9c-15.1,11.7-30.2,23.3-45.2,35.2c-4.1,3.3-6.5,8-7.6,13.1
				c-0.7,3.5,1.5,6.1,5,5.7c3.5-0.4,7.2-1.2,10.3-2.7c11-5.2,20.3-12.9,29.4-20.8c9.1-8,17.9-16.4,26.8-24.6
				C383.8,342.9,384.3,342.2,385,341.5z"/>
			<path fill="#00B0F0" stroke="#000000" stroke-width="1.0905" stroke-miterlimit="10" d="M406.6,344.6c-2.4,0.6-4.8,1-7.1,1.7
				c-2,0.6-3.2,0.4-3.9-1.8c-0.6-1.9-1.7-3.8-2.6-5.7c-6.4,6.2-12.5,12.3-19,18.1c-8.1,7.3-16.6,14.2-24.8,21.5
				c-3.5,3.1-4.7,7.4-4,12c0.5,3.1,3.3,5,6.2,4c3.2-1,6.5-2.3,9.3-4.2c10.2-6.7,18.7-15.4,27.2-24.1c6.1-6.3,11.9-12.9,17.8-19.4
				c0.5-0.5,0.8-1.1,1.3-1.6C406.8,345,406.7,344.8,406.6,344.6z"/>
			<path fill="#00B0F0" stroke="#000000" stroke-width="1.0905" stroke-miterlimit="10" d="M412.1,318.8
				c-7.4-5.3-14.8-10.7-22.3-15.8c-6.2-4.2-12.6-8.1-18.9-12.2c-1.3-0.9-2.7-2-3.5-3.3c-3.1-4.7-7.5-7-12.8-8
				c-10.7-1.9-21.6-2.7-32.4-2.1c-4.8,0.3-9.5,1.2-14.2,1.9c0,0.3-0.1,0.6-0.1,0.8c34.7,13.1,69.3,26.2,104,39.3
				C411.9,319.3,412,319,412.1,318.8z"/>
			<path fill="#00B0F0" stroke="#000000" stroke-width="1.0905" stroke-miterlimit="10" d="M279,304c9.8,0,19.2,0,28.6,0
				c0.6,0,1.3-0.2,1.8-0.5c5.7-4,11.3-8,17.3-12.2c-0.8-0.4-1.3-0.7-1.8-0.9c-6.8-2.6-13.6-5.3-20.5-7.7c-1.5-0.5-3.6-0.6-5.1,0
				c-5.2,1.9-10.4,4.2-15.5,6.4c-0.9,0.4-1.7,1.5-1.9,2.5C280.7,295.5,279.9,299.6,279,304z"/>
			<path fill="#00B0F0" stroke="#000000" stroke-width="1.0905" stroke-miterlimit="10" d="M429.7,347.6c-4.4,1-8.4,1.9-12.7,2.9
				c-0.9-2.7-1.8-5.2-2.8-8c-1.9,2.2-3.6,4.2-5.3,6c-11.2,11.6-22.6,23.2-33.7,34.9c-3.2,3.4-4,7.8-3.1,12.4
				c0.5,2.2,2.6,3.7,4.7,3.2c1.3-0.3,2.5-2.3,3.1-3.9c0.7-1.5,0.6-3.4,0.9-5c1.4-7.1,5.9-11.8,11.9-15.3c8.3-4.8,16.5-9.7,24.8-14.6
				C423.9,356.4,425.4,354.8,429.7,347.6z"/>
			<path fill="#00B0F0" stroke="#000000" stroke-width="1.0905" stroke-miterlimit="10" d="M387.1,313.9c-5.4-2-10.1-3.9-15-5.6
				c-0.6-0.2-1.7,0.2-2.3,0.6c-5.8,4.6-11.5,9.3-17.4,13.9c-1.4,1.1-1.4,2-0.9,3.5c1.8,5.7,1.8,5.7,7.7,5.1c0.1,0,0.2-0.1,0.3,0
				c5.7,0.9,9.7-1.8,13.6-5.5C377.4,321.8,382.1,318.1,387.1,313.9z"/>
			<path fill="#00B0F0" stroke="#000000" stroke-width="1.0905" stroke-miterlimit="10" d="M313.2,313.7c4.5,0.2,8.8,0.5,13.2,0.7
				c0.7,0,1.6-0.3,2.2-0.7c6.2-4.6,12.3-9.2,18.5-13.8c0.2-0.1,0.3-0.4,0.6-0.9c-5.5-2.1-10.8-4.2-16.2-6.1
				c-0.5-0.2-1.4,0.1-1.9,0.5c-5.3,3.7-10.6,7.5-15.9,11.4c-0.6,0.4-1.1,1.3-1.1,1.9C312.7,308.9,313,311.3,313.2,313.7z"/>
			<path fill="#00B0F0" stroke="#000000" stroke-width="1.0905" stroke-miterlimit="10" d="M367.4,306.4c-5.1-1.9-9.7-3.8-14.5-5.5
				c-0.6-0.2-1.7,0.2-2.4,0.7c-5.9,4.4-11.8,9-17.7,13.4c-1.2,0.9-1.3,1.6-0.8,2.9c2.1,5.6,2.1,5.1,8,5c5.9-0.1,10.4-2.5,14.7-6.3
				C358.7,313.2,363,310,367.4,306.4z"/>
			<path fill="#00B0F0" stroke="#000000" stroke-width="1.0905" stroke-miterlimit="10" d="M376,337.7c4.2,0,8.1,0,11.9,0
				c0.6,0,1.3-0.3,1.7-0.7c5.2-5.2,10.3-10.5,15.8-16.2c-4.9-1.9-9.4-3.6-13.9-5.2c-0.6-0.2-1.6,0.2-2.1,0.7
				c-4.4,3.7-8.8,7.5-13.1,11.3c-0.7,0.6-1.2,1.8-1.1,2.7C375.3,333,375.8,335.5,376,337.7z"/>
			<path fill="#00B0F0" stroke="#000000" stroke-width="1.0905" stroke-miterlimit="10" d="M422.3,327.2c-4.3-1.6-8.1-3.2-12-4.5
				c-0.7-0.2-2,0.1-2.5,0.7c-3.8,3.8-7.5,7.6-11,11.5c-0.5,0.6-0.7,2-0.4,2.7c2.1,5.4,2.1,5,7.6,4.1c5.8-0.9,10.2-3.5,13.4-8.4
				C418.7,331.3,420.4,329.5,422.3,327.2z"/>
			<path fill="#00B0F0" stroke="#000000" stroke-width="1.0905" stroke-miterlimit="10" d="M437.1,338c-4.1-3.3-7.7-6.2-11.5-9.3
				c-2.8,3.4-5.5,6.5-8.1,9.8c-0.4,0.5-0.5,1.4-0.3,2c0.5,2,1.3,3.9,2,6.1c4.4-1,8.8-1.6,12.9-3.2C434,342.6,435.2,340.1,437.1,338z
				"/>
			<path fill="#00B0F0" stroke="#000000" stroke-width="1.0905" stroke-miterlimit="10" d="M439.3,340.6c-2.4,1.9-1.6,4.1-0.9,6.7
				c1.7-1,3.1-1.9,4.8-2.9C441.8,343,440.6,341.8,439.3,340.6z"/>
		</g>
		<path fill="#002060" d="M630.3,546.9c-0.6,1.2-0.9,1.9-1.2,2.6c-7,19-18.5,34.7-35.4,45.8c-15.6,10.3-31.5,20.3-47.5,29.9
			c-16,9.5-27.3,23.2-36.9,38.7c-1.1,1.7-1.4,3.9-2.2,5.8c-0.3,0.6-1.1,1.4-1.7,1.4c-0.6,0-1.6-0.7-1.7-1.3
			c-2.7-9.7-9.6-16.7-15.5-24.3c-8.6-11.1-20.4-18.2-32.1-25.4c-14.9-9.1-29.7-18.4-43.9-28.5c-14.8-10.5-24.3-25.3-30.6-42.2
			c-0.2-0.7-0.5-1.3-0.8-2c-0.1-0.2-0.2-0.3-0.5-0.7c-1.3,6.3-2.5,12.3-3.7,18.3c-0.4,0-0.7,0.1-1.1,0.1c-0.7-0.9-1.6-1.8-2.2-2.8
			c-4.4-7.5-6.4-15.8-7.1-24.3c-0.8-10.6-0.9-21.3-1.1-32c-0.1-4.2,0.5-4.5,4.4-3.4c18.7,4.9,32.8,16.3,44.3,31.4
			c0.4,0.6,0.4,1.5,0.6,2.2c-0.8,0.1-1.7,0.6-2.5,0.4c-5.4-1.1-10.8-2.3-16.2-3.5c-0.9-0.2-1.9-0.3-3-0.5c0,0.5-0.1,0.8,0,1
			c6.5,12.1,14.5,23,25.7,31.2c9.4,6.9,19.9,10.7,31.8,9.4c6.9-0.8,13.1-3.2,17.9-8.6c0.5-0.5,1.5-1,2.2-0.9c4.9,1,9.4,0.1,13.6-2.4
			c8.9-5.4,15.7-12.7,19.2-22.7c0.7-2,1.5-3.9,2.3-6.1c2.2,3.7,4.1,7.3,6.2,10.7c3.9,6.3,8,12.5,14,17.2c4.4,3.5,9.2,5.4,14.9,3.7
			c0.6-0.2,1.5,0.1,1.9,0.4c10.5,10.4,23,10.8,36,6.5c13.5-4.5,23.2-14.1,31.3-25.3c3.1-4.4,5.8-9.1,8.7-13.6
			c-0.2-0.2-0.3-0.4-0.5-0.5c-5.9,1.3-11.8,2.5-17.7,3.8c-0.5,0.1-1.1,0.4-1.6,0.3c-0.8,0-1.7-0.3-2.5-0.4c0.2-0.8,0.3-1.8,0.8-2.4
			c11.7-15.5,26.2-26.8,45.4-31.5c1.8-0.4,2.8-0.3,3,1.8c1.1,16.9,0.6,33.6-4.4,50c-1,3.2-2.7,6.1-4.2,9.1c-0.4,0.7-1.2,1.1-1.9,1.7
			c-0.5-0.8-1.2-1.5-1.4-2.4c-0.9-4.3-1.6-8.5-2.4-12.8C631,548.9,630.7,548.1,630.3,546.9z"/>
		<path fill="#CC0000" stroke="#FFC600" stroke-width="4.0199" stroke-miterlimit="10" d="M146.3,740c-2.8-12.1-5.7-23.9-8.3-35.7
			c-2.4-10.9-4.4-22-6.6-33c-0.6-3.2,1.1-5.2,4.3-5.4c3.2-0.2,5.5,1.4,7.6,3.5c16.6,16.9,34.2,32.6,52.9,47
			c23.5,18.2,48.4,34.3,74.6,48.4c4.9,2.6,5.5,5.4,2.1,9.8c-3.3,4.4-6.7,8.8-10.1,13.1c-2.8,3.7-6.7,4.5-10.8,2.2
			c-3.9-2.2-7.7-4.5-11.5-6.7c-4.5-2.6-7.9-2-11.3,1.8c-13,15.2-26.1,30.3-39.1,45.5c-4.1,4.7-7.6,5.2-12.7,1.4
			c-8.8-6.6-17.9-13-26.2-20.2c-15.2-13.2-30.2-26.5-44.6-40.5c-16.1-15.6-30.7-32.7-44.4-50.6c-0.9-1.2-2-2.6-2.2-4
			c-0.2-1.8,0.1-4,1-5.5c1.2-1.9,3.6-1.4,5.5-0.5c2.6,1.2,5.2,2.5,7.8,3.7c22.6,10.6,45.9,19,70.1,25.1
			C145,739.8,145.5,739.9,146.3,740z"/>
		<path fill="#CC0000" stroke="#FFC600" stroke-width="4.0199" stroke-miterlimit="10" d="M872.8,740c2.8-12.1,5.7-23.9,8.3-35.7
			c2.4-10.9,4.4-22,6.6-33c0.6-3.2-1.1-5.2-4.3-5.4c-3.2-0.2-5.5,1.4-7.6,3.5c-16.6,16.9-34.2,32.6-52.9,47
			c-23.5,18.2-48.4,34.3-74.6,48.4c-4.9,2.6-5.5,5.4-2.1,9.8c3.3,4.4,6.7,8.8,10.1,13.1c2.8,3.7,6.7,4.5,10.8,2.2
			c3.9-2.2,7.7-4.5,11.5-6.7c4.5-2.6,7.9-2,11.3,1.8c13,15.2,26.1,30.3,39.1,45.5c4.1,4.7,7.6,5.2,12.7,1.4
			c8.8-6.6,17.9-13,26.2-20.2c15.2-13.2,30.2-26.5,44.6-40.5c16.1-15.6,30.7-32.7,44.4-50.6c0.9-1.2,2-2.6,2.2-4
			c0.2-1.8-0.1-4-1-5.5c-1.2-1.9-3.6-1.4-5.5-0.5c-2.6,1.2-5.2,2.5-7.8,3.7c-22.6,10.6-45.9,19-70.1,25.1
			C874.1,739.8,873.5,739.9,872.8,740z"/>
		<path fill="#FFC600" stroke="#000000" stroke-width="1.005" stroke-miterlimit="10" d="M540.7,718.4c-3.2,3.1-6.1,6-9,8.8
			c-2.3,2.2-4.5,4.5-6.9,6.5c-1.6,1.4-2,2.8-1.6,4.8c1.3,6.8,2.4,13.7,3.6,20.5c0,0.3,0,0.5-0.1,1.1c-4.1-2.1-8.1-4.2-12-6.3
			c-3.2-1.7-6.4-4.6-9.6-4.6c-3.3,0-6.6,2.9-9.9,4.6c-3.9,2-7.8,4.1-12.2,6.4c0.8-5,1.6-9.6,2.4-14.2c0.5-2.9,1.1-5.7,1.4-8.6
			c0.1-1-0.4-2.5-1.1-3.2c-4.6-4.7-9.4-9.3-14.1-13.9c-0.6-0.6-1.2-1.3-2-2.2c7.6-1.1,14.9-2.3,22.2-3.3c1.6-0.2,2.5-0.8,3.2-2.3
			c3.2-6.7,6.5-13.3,10.1-20.3c2.9,5.9,6,11.4,8.4,17.2c1.6,3.8,3.7,5.7,8,6C527.7,716.1,533.9,717.4,540.7,718.4z"/>
		<g>
			<path fill="#843C0C" stroke="#000000" stroke-width="1.0905" stroke-miterlimit="10" d="M614.1,443.1
				c5.9-7.4,11.8-14.9,17.9-22.6c4.3,3.8,8.5,7.5,12.8,11c6,5,12,9.9,18.1,14.8c3.5,2.8,7.4,4.6,11.9,5.4c3.2,0.6,6.6,1.8,9.1,3.8
				c8.2,6.5,16.2,13.3,24.1,20.2c14.1,12.2,28,24.6,42.1,36.8c3.7,3.3,4,5.3,0.5,9c-8.4,9.1-17,18.1-25.2,27.3
				c-5.7,6.4-11.1,13.2-16.4,19.9c-1.7,2.1-3.5,2.8-5.6,1.2c-2.1-1.6-4.3-3.4-5.7-5.6c-11.1-17.1-21.4-34.6-33-51.3
				c-16.3-23.4-33.4-46.2-50.2-69.2C614.3,443.7,614.3,443.5,614.1,443.1z"/>
			<path fill="#843C0C" stroke="#000000" stroke-width="1.0905" stroke-miterlimit="10" d="M563,419c1.5-2.2,3-4.2,4.9-7
				c-2.9-0.1-5.3-0.7-7.3-0.1c-2.1,0.7-3.7,2.6-6.3,4.4c0.5-2.1,0.7-3.4,1.2-4.7c0.8-2.1,0.7-4,0.1-6.3c-0.7-2.6-0.4-5.5-0.2-8.3
				c1-10.9,3.4-21.6,6.6-32.1c1.2-4,1.9-8.2,2.9-12.6c0.5,0.2,1.1,0.4,1.7,0.8c15.5,9.3,30.9,18.8,46.5,28c5.2,3.1,7.8,7.4,8.3,13.2
				c0.2,2.5,0.5,5,2.6,6.9c0.9,0.8,1.3,2.2,1.7,3.4c0.2,0.6,0.2,1.6-0.1,2c-2.3,3-2.4,4.4-0.5,7.6c0.4,0.6,0.6,1.8,0.3,2.3
				c-5.6,7.2-11.3,14.3-16.8,21.3c-2.9-0.1-5.5-4.9-8.1,0.4C588,431.7,575.6,425.4,563,419z"/>
			<path fill="#843C0C" stroke="#000000" stroke-width="1.0905" stroke-miterlimit="10" d="M641.8,276.1
				c-6.2-10-12.3-19.9-18.6-30.1c0.9-0.6,1.7-1.1,2.5-1.6c11.9-6.9,23.8-13.7,35.7-20.7c2.3-1.3,4.3-1.6,6.6-0.2
				c5.7,3.4,11.8,5.7,18.6,4.4c2.2-0.4,4.4-1,6.3-2.1c9-5.2,17.8-10.7,26.8-15.9c1.8-1.1,3-2,1.9-4.4c-0.6-1.2-0.4-2.8-0.4-4.3
				c0.1-6.1-0.9-11.8-3.7-17.3c-1.9-3.9-0.9-6.6,2.6-8.9c4.2-2.8,7.9-1.7,9.8,2.9c0.6,1.4,1,2.9,1.4,4.4c1,3.5,2.5,6.4,6.1,7.7
				c0.8,0.3,1.8,1.2,2,2c0.8,2.7,2.4,2.8,4.6,2.1c4.8-1.6,6.9-0.6,8.6,4.2c1,2.7,0.5,4.3-2.1,5.2c-3,1.1-4.2,2.9-4.1,6.1
				c0.1,3.6-2.8,5-5.4,6.4c-5,2.7-10.2,5.1-15,8c-13.3,7.9-26.4,16.1-39.6,24.2c-0.6,0.4-1.4,0.8-1.6,1.4c-1.3,3.4-4.4,3.8-7.2,5.1
				c-4.6,2.1-9,4.6-13.3,7.3c-6.7,4.1-13.3,8.5-19.9,12.7C643.6,275.2,642.8,275.6,641.8,276.1z M632.9,256.8
				c2.6,2.6,4.9,2.3,7.6,0.5c3.9-2.7,8.1-5.1,12.1-7.6c4-2.4,8-4.8,12-7.3c1.5-0.9,1.9-2,1-3.6c-1-1.8-2.2-1-3.4-0.3
				c-9.2,5.7-18.5,11.3-27.7,17C634,255.8,633.5,256.3,632.9,256.8z M731.3,217.1c-0.1-0.2-0.2-0.5-0.2-0.7
				c-1.7,0.5-3.6,0.7-5.1,1.5c-9.9,5.8-19.7,11.7-29.5,17.7c-0.6,0.4-0.8,1.4-1.2,2.2c0.8-0.1,1.7,0,2.3-0.4
				c8.7-5.2,17.3-10.4,26-15.6C726.1,220.3,728.7,218.7,731.3,217.1z M640.8,271.3c0.2,0.2,0.5,0.4,0.7,0.6
				c10.1-6.2,20.1-12.4,30.2-18.6c0.7-0.4,1.2-1.3,1.7-1.9c-0.2-0.3-0.5-0.6-0.7-0.9c-1.7,1-3.4,2-5,3c-7.8,4.7-15.7,9.3-23.4,14.1
				C642.9,268.5,642,270.1,640.8,271.3z M724.3,196.6c0.1,3.3,1.9,4.2,4.1,2.9c1.5-0.9,3.1-1.8,4.6-2.8c1.3-0.8,2.4-1.7,1.4-3.5
				c-1-1.7-2.2-2.9-4.4-1.8c-1.4,0.8-2.9,1.5-4.1,2.5C725.1,194.8,724.7,196,724.3,196.6z M732.1,216.4c0.1,0,0.1-0.1,0.2-0.1
				c-0.1-0.1-0.1-0.1-0.2-0.2c-0.1,0.1-0.1,0.1-0.2,0.2C732,216.4,732,216.4,732.1,216.4z"/>
			<path fill="#843C0C" stroke="#000000" stroke-width="1.0905" stroke-miterlimit="10" d="M564.1,334.7c-0.8-4.6-1.8-8.8-2-13
				c-0.1-2.5,0.9-5,1.6-7.5c1.6-5.7,3.4-11.4,5.1-17c0.3-0.1,0.5-0.2,0.6-0.2c7.7,1.4,12.4-4.4,18.1-7.6c0.9-0.5,1.7-1.9,1.6-2.9
				c-0.1-2.1,1.1-2.8,2.5-3.7c1.6-1,3.3-2,4.8-3c1.7-1.1,3.1-2.2,5.3-0.9c0.8,0.5,2.5,0,3.6-0.5c3.6-2,7.1-4.3,10.6-6.5
				c2.3-1.5,3-4.2,1.7-6.4c-1.3-2.2-3.9-2.8-6.4-1.4c-3.6,2.1-7.2,4.2-10.6,6.6c-1.2,0.9-2.1,2.8-2.1,4.2c-0.1,1.6-0.4,2.4-1.7,3.2
				c-2.7,1.6-5.4,3.3-8.3,5.1c-2.6-2.8-5.3-2.2-8.1-0.2c-2.8,2-5.8,3.6-9.5,5.9c0.9-6.6,1.6-12.4,2.4-18.3c0.1-0.6,0.9-1.4,1.5-1.7
				c10.9-6.1,21.7-12.3,32.7-18.2c6.9-3.7,7.5-3.4,11.5,3.3c5.3,8.5,10.5,17.1,15.9,25.6c1.2,1.8,0.7,3-0.9,4
				c-8,5.3-16.2,10.3-24,15.8c-13.1,9.3-25.9,18.8-38.8,28.4C568.9,329.9,566.7,332.3,564.1,334.7z"/>
			<path fill="#843C0C" stroke="#000000" stroke-width="1.0905" stroke-miterlimit="10" d="M560.5,426.3
				c11.2,5.7,22.5,11.5,33.9,17.3c-5.1,5.6-4.9,12.6-6,19.2c-1.1,7-2,14-2.8,21c-0.5,4.1-2.6,7-6.6,8c-7.5,2-14.8,1.2-21.5-2.8
				c-4.4-2.6-5.1-5.4-3.6-10.4c1.9-6.5,4.1-12.9,5.2-19.6c1.4-8.1,1.9-16.3,2.7-24.5c0.1-1.1-0.4-2.3-0.7-3.4
				c-0.4-1.5-0.9-3.1-1.3-4.6C560.1,426.5,560.3,426.4,560.5,426.3z"/>
		</g>
		<g>
			<path fill="#843C0C" stroke="#000000" stroke-width="1.0905" stroke-miterlimit="10" d="M396.7,443.1
				c-13.2,18.1-26.2,36-39.2,53.8c-15.8,21.6-30.4,44.1-44.1,67.1c-1.4,2.4-3.7,4.3-6,6c-2,1.6-4,0.8-5.6-1.3
				c-4.4-5.5-8.7-11.2-13.4-16.4c-9.1-10.1-18.4-20-27.6-29.9c-0.7-0.8-1.5-1.6-2-2.5c-1.7-3-1.5-4.4,1.1-6.6
				c12.8-11.2,25.7-22.3,38.5-33.5c8.1-7.1,16-14.4,24.2-21.3c4.5-3.8,9.6-6.6,15.8-7.3c2.8-0.3,5.7-2,7.9-3.8
				c9.8-7.8,19.4-16,29.1-24c1-0.9,2-1.8,3.3-2.9C384.8,428.1,390.7,435.5,396.7,443.1z"/>
			<path fill="#843C0C" stroke="#000000" stroke-width="1.0905" stroke-miterlimit="10" d="M445.7,352.2c1.8,9.9,3.5,19.7,5.3,29.5
				c1.2,6.7,3,13.2,3.9,19.9c0.7,4.8-1.5,9.8,2.6,14.3c-0.4,0.2-0.8,0.5-1.2,0.7c-3.5-4-7.5-6.4-13.2-4.2c1.5,2.1,3,4.2,4.7,6.6
				c-12.5,6.4-24.9,12.7-37.2,19.1c-2.6-2.9-2.6-2.9-8.2,0c-5.9-7.4-11.8-14.9-17.3-21.7c0.7-2.7,1.4-4.8,1.7-6.9
				c0.1-0.8-0.8-1.7-1.2-2.5c-0.3-0.7-0.7-1.5-0.6-2.1c0.3-1.1,0.6-2.4,1.4-3.2c2.5-2.3,2.7-5.4,3-8.4c0.6-5,3-8.8,7.3-11.4
				c16.2-9.8,32.4-19.5,48.5-29.3C445.6,352.2,445.9,352.1,445.7,352.2z"/>
			<path fill="#843C0C" stroke="#000000" stroke-width="1.0905" stroke-miterlimit="10" d="M387.5,246.1
				c-6.2,10-12.3,19.9-18.6,30.1c-5.6-3.5-11-6.9-16.4-10.3c-4.4-2.8-8.8-5.8-13.2-8.5c-1.9-1.2-4-2-6.2-2.8c-2.8-1-5.8-1.7-7-4.9
				c-0.2-0.5-0.9-0.9-1.4-1.2c-15.7-9.5-31.4-19.1-47.1-28.5c-2.8-1.7-5.8-2.9-8.7-4.4c-3.1-1.5-4.9-3.9-4.7-7.5
				c0.1-2.2-1-3.2-2.9-4.1c-3.6-1.6-4.2-3-3-6c1.8-4.3,3.7-5.5,7.3-4.3c3.9,1.3,3.8,1.2,6-2.1c0.5-0.8,1.4-1.4,2.3-1.8
				c2.9-1.3,4.4-3.6,5.3-6.5c0.6-2.1,1.3-4.2,2.1-6.1c1.5-3.4,3.9-4.3,7.3-3.2c3.9,1.3,6.1,4.4,5.5,7.6c-0.2,1-0.4,2-0.9,2.8
				c-3.1,5.4-3.5,11.3-3.6,17.3c0,1.2,0.2,2.5-0.3,3.5c-1.3,2.6,0,3.6,2,4.8c8.5,5,16.9,10.1,25.4,15.2c6.4,3.9,13,3.9,19.8,1.4
				c2.5-0.9,4.8-2.5,7.4-3.4c1.4-0.5,3.4-0.6,4.6,0.1c12.8,7.3,25.6,14.7,38.3,22.1C386.8,245.5,387,245.7,387.5,246.1z
				 M369.1,271.6c0.2,0,0.4,0.1,0.6,0.1c-0.1-0.1-0.2-0.2-0.4-0.3c-0.9-1.2-1.6-2.9-2.8-3.7c-8.7-5.5-17.5-10.8-26.3-16.1
				c-0.8-0.5-1.8-0.5-2.7-0.7c-0.1,0.3-0.2,0.6-0.4,0.8c0.9,0.7,1.6,1.5,2.6,2.1c3.9,2.5,7.8,4.9,11.8,7.3
				C357.4,264.6,363.2,268.1,369.1,271.6z M279.1,216.6c-0.1-0.1-0.1-0.3-0.2-0.4c-0.1,0.1-0.2,0.1-0.3,0.2
				C278.8,216.5,279,216.5,279.1,216.6c1.1,0.7,2.1,1.6,3.2,2.3c8.1,4.8,16.2,9.6,24.2,14.4c2.8,1.7,5.6,3.5,8.4,5.3
				c1.5-1.9,0.2-2.4-0.9-3.1c-9.2-5.5-18.4-11.1-27.7-16.5C284.2,217.7,281.5,217.4,279.1,216.6z M377.8,256.9
				c-0.1-0.1-0.3-0.5-0.6-0.7c-9.9-6.1-19.7-12.1-29.6-18.1c-0.5-0.3-2.2,0.1-2.3,0.6c-0.3,0.9-0.4,2.5,0.1,3c1.2,1.3,2.9,2.1,4.5,3
				c6.4,3.9,13,7.5,19.3,11.6C372.1,258.3,374.6,260.1,377.8,256.9z M286.3,197.2c0-2.6-5.5-7-7.8-6c-1.1,0.5-2,1.8-2.5,3
				c-0.2,0.6,0.8,1.8,1.6,2.4c1.4,1.1,3.1,1.9,4.6,2.8C284.6,200.9,286.2,200,286.3,197.2z M277.9,215.8c-0.1-0.1-0.1-0.1-0.2-0.1
				c-0.1,0-0.1,0.1-0.2,0.1c0.1,0.1,0.1,0.1,0.2,0.1C277.8,215.9,277.9,215.8,277.9,215.8z"/>
			<path fill="#843C0C" stroke="#000000" stroke-width="1.0905" stroke-miterlimit="10" d="M411.9,277.1c0.6-4.1,0.2-5-3.3-7.2
				c-2.9-1.8-5.8-3.6-8.8-5.4c-2.9-1.7-5.4-1.3-6.9,1c-1.5,2.3-0.8,4.8,2,6.6c3.3,2.1,6.5,4.2,9.9,6.1c1.2,0.6,3,1.2,4,0.7
				c2-1,3.3-0.3,4.8,0.7c1.6,1.1,3.2,2,4.8,3c1.6,1,3.1,1.8,3,4.2c0,1,1.2,2.4,2.2,3.1c3.3,2.2,6.7,4.3,10.1,6.3
				c1.1,0.6,2.6,1,3.8,0.8c5.6-1.1,9,2.9,13.2,5.3c0.3,0.2,0.4,0.8,0.4,1.2c-1,10.7-2,21.4-3,32.8c-1.4-1.3-2.3-2.2-3.3-3
				c-9.3-7.3-18.5-14.8-28-21.8c-10.6-7.8-21.5-15.3-32.4-22.8c-2.4-1.7-5.1-3.1-7.7-4.6c-2.4-1.4-2.7-2.1-1.3-4.4
				c6-9.8,12.1-19.5,18.1-29.3c0.9-1.5,2-2,3.5-1.4c2.2,0.8,4.5,1.4,6.6,2.5c6.9,3.7,13.6,7.5,20.4,11.3c0.7,0.4,1.5,1.6,1.5,2.4
				c-0.2,4.1,1.8,6.9,5.4,8.3c5.1,1.9,10.3,3.3,15.5,4.7c2.9,0.8,5.4,5.2,4,7.8c-2,3.7-4.4,7.2-6.7,10.9c-1.6-1-3.1-1.5-2.6-4
				c0.2-1.2-1.1-3.1-2.3-3.9c-3.4-2.4-7-4.4-10.6-6.6c-2.4-1.5-4.5-0.7-6.4,1.2C418.7,281.3,415.4,279.3,411.9,277.1z"/>
			<path fill="#843C0C" stroke="#000000" stroke-width="1.0905" stroke-miterlimit="10" d="M450.7,426c-0.1,1,0,1.4-0.2,1.8
				c-3.2,6.8-1,13.7-0.5,20.5c0.9,10.6,3.1,20.9,6.8,30.8c1.6,4.3,0.7,7.1-3.2,9.6c-6.9,4.4-14.4,5.1-22.1,3c-3.8-1-5.9-3.8-6.4-7.9
				c-1.2-9.2-2.4-18.5-3.8-27.7c-0.7-4.5-1.6-8.9-5.1-12.6C427.8,437.7,439.1,432,450.7,426z"/>
		</g>
		<g>
			<path fill="#CCC579" stroke="#000000" stroke-width="1.0905" stroke-miterlimit="10" d="M413.9,730.3c-20.1-7-34-20.6-44.3-38.3
				c-6.7-11.6-12-26.8-11.6-33.3c5.2,2.6,10.3,5.1,15.3,7.8c19.5,10.5,37.9,22.6,53.7,38.4c7.6,7.7,14.3,16.1,19.2,25.8
				c0.7,1.5,0.7,2.6-0.1,4c-5,9.4-12.4,16.4-21.3,22c-13.4,8.5-28.2,12.9-43.7,15.2c-18.9,2.8-37.7,2.2-56.4-1.6
				c-0.5-0.1-1.1-0.2-1.6-0.4c-0.2,0-0.3-0.2-0.8-0.7C349.9,749.4,379.4,734.7,413.9,730.3z"/>
			<path fill="#CCC579" stroke="#000000" stroke-width="1.0905" stroke-miterlimit="10" d="M249.7,735.9
				c29.7-13.5,60.6-22.1,94.2-20.4c-29.2-17.8-40.8-44.6-41.9-77.7c0.9,0.4,1.4,0.4,1.7,0.7c21.6,15.7,41.2,33.4,56.6,55.4
				c5.5,7.8,9.8,16.2,12.7,25.4c1,3,0.5,5.2-1.7,7.5c-9,9.5-20.2,15.2-32.6,18.5c-21.1,5.6-42.3,4.7-63.4-0.3
				c-7.9-1.9-15.5-4.8-23.2-7.3c-0.8-0.3-1.6-0.7-2.4-1.1C249.7,736.4,249.7,736.2,249.7,735.9z"/>
			<path fill="#CCC579" stroke="#000000" stroke-width="1.0905" stroke-miterlimit="10" d="M282.4,690.5c-4.1-4.1-8.7-8-12.3-12.5
				c-11.1-13.7-16.1-29.8-16.3-47.3c-0.1-6.3,1-12.6,1.5-18.9c0.1-0.8,0.4-1.5,0.8-2.9c5,5.8,9.8,11,14.3,16.5
				c12.9,16,24.4,32.8,31.7,52.2c2.6,6.9,3.8,14.3,5.7,21.4c0.6,2.4-0.2,4-2.2,5.5c-8.9,6.9-19.1,10.7-30.1,11.9
				c-32,3.6-60.5-5.8-86.9-23.1c-0.2-0.1-0.3-0.4-0.9-1c5.1-1.2,9.9-2.5,14.8-3.4c14.1-2.7,28.3-3.9,42.6-3.7
				c11.8,0.2,23.4,1.6,34.8,4.8C280.6,690.2,281.5,690.3,282.4,690.5c0.2,0.1,0.3,0.2,0.4,0.3C282.6,690.6,282.5,690.6,282.4,690.5z
				"/>
			<path fill="#CCC579" stroke="#000000" stroke-width="1.0905" stroke-miterlimit="10" d="M224.4,652.8
				c-6.1-7.6-11.1-15.8-13.9-25.2c-5.4-18.2-4.8-36,2.8-53.5c0.3-0.6,0.5-1.2,0.8-1.7c0.2-0.3,0.4-0.6,0.8-1.2
				c0.6,0.8,1.1,1.5,1.6,2.2c13.3,21.6,23.5,44.4,28,69.5c1.3,7.3,1,14.9,1.4,22.4c0.1,2.5-1,4.1-3.4,5.2
				c-9.8,4.7-20.2,6.2-30.9,5.2c-30.4-2.9-55.2-17.1-76.3-38.5c-0.2-0.2-0.4-0.6-1-1.5c31.7-1.3,61.6,3.5,89.7,17.7
				c0.2,0,0.5,0.1,0.7,0.1C224.6,653.2,224.5,653,224.4,652.8z"/>
			<path fill="#CCC579" stroke="#000000" stroke-width="1.0905" stroke-miterlimit="10" d="M94.7,571c30.8,3.8,57.8,15.2,81.7,34.7
				c-14.6-28-11.2-54.6,5.1-80.3c0.3,0,0.7-0.1,1-0.1c1.8,5.2,3.8,10.4,5.4,15.7c5.8,19.1,9.3,38.5,8.3,58.5
				c-0.3,7-2.1,13.9-3.3,20.8c-0.4,2.3-1.8,3.4-4.1,3.9c-9.5,2.2-18.9,1.6-28.2-1c-24.1-6.6-42.9-21.1-58.2-40.4
				c-2.6-3.3-4.8-6.8-7.2-10.2C95.1,572.3,95.1,572,94.7,571z"/>
			<path fill="#CCC579" stroke="#000000" stroke-width="1.0905" stroke-miterlimit="10" d="M71.8,499.7
				c23.9,9.6,45.6,22.5,63.3,41.8c-3.6-16-1.1-30.9,6.9-45c4.1-7.3,9.4-13.7,16.5-19.4c0.8,6,1.6,11.4,2.1,16.9
				c1.3,14.7,1.5,29.5-0.4,44.1c-1.3,9.9-3.5,19.6-8.4,28.4c-1,1.8-2.2,2.5-4.3,2.6c-10.9,0.3-20.7-3.2-29.8-8.7
				C94.3,546.5,79.8,525.6,71.8,499.7z M135.5,542.3l-0.1-0.1l0,0.2L135.5,542.3z"/>
			<path fill="#CCC579" stroke="#000000" stroke-width="1.0905" stroke-miterlimit="10" d="M60.5,423.3c26,15.5,42.9,37.8,54.2,64.7
				c-1.2-13.9,0.9-27,7.5-39.3c6.6-12.2,16.2-21.2,28.2-27.9c0.3,0.1,0.6,0.2,1,0.4c-0.9,6.9-1.5,13.9-2.8,20.8
				c-3.2,16.9-8.8,33-17.5,47.9c-2.7,4.6-6.2,8.6-9.3,13c-1.5,2.1-3.4,2-5.5,1.6c-8.2-1.8-15.4-5.9-21.7-11.3
				c-17.7-15.2-27.7-34.7-32.3-57.3C61.5,431.9,61.2,428,60.5,423.3z"/>
			<path fill="#CCC579" stroke="#000000" stroke-width="1.0905" stroke-miterlimit="10" d="M66.1,352.7
				c22.7,18.1,35.1,41.4,39.7,69.4c3.7-28.6,18.8-48.3,46-58.9c-1.6,5.9-2.8,11.9-4.8,17.7c-6.4,18.8-16.2,35.7-30.6,49.7
				c-2,1.9-4.4,3.5-6.5,5.3c-2.2,2-4.3,1.8-6.9,0.4c-9.3-4.8-16.1-12.3-21.6-20.9C69.4,396.4,64.5,375.6,66.1,352.7z"/>
			<path fill="#CCC579" stroke="#000000" stroke-width="1.0905" stroke-miterlimit="10" d="M160.1,304.4c-2.4,5.9-4.4,12-7.1,17.7
				c-8,16.4-19,30.3-33.8,41c-3,2.1-6.4,3.8-9.7,5.4c-0.9,0.4-2.5,0.2-3.4-0.3c-5.8-3.5-10-8.6-13.6-14.2
				c-8.4-13.1-12.8-27.4-13.8-42.9c-0.2-3.4-0.4-6.9-0.2-10.3c0.4-5.1,1.1-10.2,1.8-16c19.8,19.8,28.6,43.4,28.9,70.7
				c7.4-26.4,23.7-43.9,50-51.6C159.4,304.1,159.7,304.2,160.1,304.4z"/>
			<path fill="#CCC579" stroke="#000000" stroke-width="1.0905" stroke-miterlimit="10" d="M121.1,290.1
				c9.6-24.6,26.7-40.1,53.1-45.3c-2.6,7.8-6.1,14.8-10.6,21.2c-9.4,13.6-20.9,25-36,32.3c-9.9,4.8-9.4,5-16.5-4
				c-7.9-10.1-11.7-22.2-13.5-34.8c-1.8-13.2-1-26.2,3.5-39.4c8,10,14.1,20.7,17.4,32.9C122,265.2,122,277.5,121.1,290.1z"/>
			<path fill="#CCC579" stroke="#000000" stroke-width="1.0905" stroke-miterlimit="10" d="M134.3,247.6
				c-6.2-10.2-6.8-20.9-3.9-31.7c4.8-18,15.6-31.8,30.6-42.5c0.2-0.1,0.5-0.2,1.3-0.5c0.3,4.8,0.9,9.5,0.9,14.1
				c0.2,14.8-2,29-9.2,42.2c-4.2,7.6-10,13.7-17.9,17.7C135.7,247.1,135.1,247.3,134.3,247.6z"/>
		</g>
		<g>
			<path fill="#CCC579" stroke="#000000" stroke-width="1.0905" stroke-miterlimit="10" d="M596.8,730.7c20.1-7,34-20.6,44.3-38.3
				c6.7-11.6,12-26.8,11.6-33.3c-5.2,2.6-10.3,5.1-15.3,7.8c-19.5,10.5-37.9,22.6-53.7,38.4c-7.6,7.7-14.3,16.1-19.2,25.8
				c-0.7,1.5-0.7,2.6,0.1,4c5,9.4,12.4,16.4,21.3,22c13.4,8.5,28.2,12.9,43.7,15.2c18.9,2.8,37.7,2.2,56.4-1.6
				c0.5-0.1,1.1-0.2,1.6-0.4c0.2,0,0.3-0.2,0.8-0.7C660.8,749.8,631.3,735.1,596.8,730.7z"/>
			<path fill="#CCC579" stroke="#000000" stroke-width="1.0905" stroke-miterlimit="10" d="M761,736.3
				c-29.7-13.5-60.6-22.1-94.2-20.4c29.2-17.8,40.8-44.6,41.9-77.7c-0.9,0.4-1.4,0.4-1.7,0.7c-21.6,15.7-41.2,33.4-56.6,55.4
				c-5.5,7.8-9.8,16.2-12.7,25.4c-1,3-0.5,5.2,1.7,7.5c9,9.5,20.2,15.2,32.6,18.5c21.1,5.6,42.3,4.7,63.4-0.3
				c7.9-1.9,15.5-4.8,23.2-7.3c0.8-0.3,1.6-0.7,2.4-1.1C761,736.9,761,736.6,761,736.3z"/>
			<path fill="#CCC579" stroke="#000000" stroke-width="1.0905" stroke-miterlimit="10" d="M728.3,690.9c4.1-4.1,8.7-8,12.3-12.5
				c11.1-13.7,16.1-29.8,16.3-47.3c0.1-6.3-1-12.6-1.5-18.9c-0.1-0.8-0.4-1.5-0.8-2.9c-5,5.8-9.8,11-14.3,16.5
				c-12.9,16-24.4,32.8-31.7,52.2c-2.6,6.9-3.8,14.3-5.7,21.4c-0.6,2.4,0.2,4,2.2,5.5c8.9,6.9,19.1,10.7,30.1,11.9
				c32,3.6,60.5-5.8,86.9-23.1c0.2-0.1,0.3-0.4,0.9-1c-5.1-1.2-9.9-2.5-14.8-3.4c-14.1-2.7-28.3-3.9-42.6-3.7
				c-11.8,0.2-23.4,1.6-34.8,4.8C730,690.7,729.1,690.7,728.3,690.9c-0.2,0.1-0.3,0.2-0.4,0.3C728,691.1,728.2,691,728.3,690.9z"/>
			<path fill="#CCC579" stroke="#000000" stroke-width="1.0905" stroke-miterlimit="10" d="M786.3,653.2
				c6.1-7.6,11.1-15.8,13.9-25.2c5.4-18.2,4.8-36-2.8-53.5c-0.3-0.6-0.5-1.2-0.8-1.7c-0.2-0.3-0.4-0.6-0.8-1.2
				c-0.6,0.8-1.1,1.5-1.6,2.2c-13.3,21.6-23.5,44.4-28,69.5c-1.3,7.3-1,14.9-1.4,22.4c-0.1,2.5,1,4.1,3.4,5.2
				c9.8,4.7,20.2,6.2,30.9,5.2c30.4-2.9,55.2-17.1,76.3-38.5c0.2-0.2,0.4-0.6,1-1.5c-31.7-1.3-61.6,3.5-89.7,17.7
				c-0.2,0-0.5,0.1-0.7,0.1C786.1,653.6,786.2,653.4,786.3,653.2z"/>
			<path fill="#CCC579" stroke="#000000" stroke-width="1.0905" stroke-miterlimit="10" d="M916,571.5
				c-30.8,3.8-57.8,15.2-81.7,34.7c14.6-28,11.2-54.6-5.1-80.3c-0.3,0-0.7-0.1-1-0.1c-1.8,5.2-3.8,10.4-5.4,15.7
				c-5.8,19.1-9.3,38.5-8.3,58.5c0.3,7,2.1,13.9,3.3,20.8c0.4,2.3,1.8,3.4,4.1,3.9c9.5,2.2,18.9,1.6,28.2-1
				c24.1-6.6,42.9-21.1,58.2-40.4c2.6-3.3,4.8-6.8,7.2-10.2C915.5,572.8,915.6,572.4,916,571.5z"/>
			<path fill="#CCC579" stroke="#000000" stroke-width="1.0905" stroke-miterlimit="10" d="M893,561c-9.1,5.5-18.9,9-29.8,8.7
				c-2.1,0-3.3-0.8-4.3-2.6c-4.9-8.9-7.1-18.5-8.4-28.4c-2-14.7-1.7-29.4-0.4-44.1c0.5-5.5,1.3-11,2.1-16.9
				c7.1,5.7,12.3,12.1,16.5,19.4c8,14.1,10.5,29,6.9,45c17.7-19.3,39.3-32.2,63.3-41.8C930.8,526,916.4,546.9,893,561z M875.3,542.8
				l0-0.2l-0.1,0.1L875.3,542.8z"/>
			<path fill="#CCC579" stroke="#000000" stroke-width="1.0905" stroke-miterlimit="10" d="M950.2,423.8
				c-26,15.5-42.9,37.8-54.2,64.7c1.2-13.9-0.9-27-7.5-39.3c-6.6-12.2-16.2-21.2-28.2-27.9c-0.3,0.1-0.6,0.2-1,0.4
				c0.9,6.9,1.5,13.9,2.8,20.8c3.2,16.9,8.8,33,17.5,47.9c2.7,4.6,6.2,8.6,9.3,13c1.5,2.1,3.4,2,5.5,1.6c8.2-1.8,15.4-5.9,21.7-11.3
				c17.7-15.2,27.7-34.7,32.3-57.3C949.1,432.4,949.5,428.4,950.2,423.8z"/>
			<path fill="#CCC579" stroke="#000000" stroke-width="1.0905" stroke-miterlimit="10" d="M944.6,353.1
				c-22.7,18.1-35.1,41.4-39.7,69.4c-3.7-28.6-18.8-48.3-46-58.9c1.6,5.9,2.8,11.9,4.8,17.7c6.4,18.8,16.2,35.7,30.6,49.7
				c2,1.9,4.4,3.5,6.5,5.3c2.2,2,4.3,1.8,6.9,0.4c9.3-4.8,16.1-12.3,21.6-20.9C941.3,396.8,946.2,376.1,944.6,353.1z"/>
			<path fill="#CCC579" stroke="#000000" stroke-width="1.0905" stroke-miterlimit="10" d="M850.6,304.9c2.4,5.9,4.4,12,7.1,17.7
				c8,16.4,19,30.3,33.8,41c3,2.1,6.4,3.8,9.7,5.4c0.9,0.4,2.5,0.2,3.4-0.3c5.8-3.5,10-8.6,13.6-14.2c8.4-13.1,12.8-27.4,13.8-42.9
				c0.2-3.4,0.4-6.9,0.2-10.3c-0.4-5.1-1.1-10.2-1.8-16c-19.8,19.8-28.6,43.4-28.9,70.7c-7.4-26.4-23.7-43.9-50-51.6
				C851.3,304.5,850.9,304.7,850.6,304.9z"/>
			<path fill="#CCC579" stroke="#000000" stroke-width="1.0905" stroke-miterlimit="10" d="M889.5,290.5
				c-9.6-24.6-26.7-40.1-53.1-45.3c2.6,7.8,6.1,14.8,10.6,21.2c9.4,13.6,20.9,25,36,32.3c9.9,4.8,9.4,5,16.5-4
				c7.9-10.1,11.7-22.2,13.5-34.8c1.8-13.2,1-26.2-3.5-39.4c-8,10-14.1,20.7-17.4,32.9C888.7,265.6,888.6,278,889.5,290.5z"/>
			<path fill="#CCC579" stroke="#000000" stroke-width="1.0905" stroke-miterlimit="10" d="M876.3,248c6.2-10.2,6.8-20.9,3.9-31.7
				c-4.8-18-15.6-31.8-30.6-42.5c-0.2-0.1-0.5-0.2-1.3-0.5c-0.3,4.8-0.9,9.5-0.9,14.1c-0.2,14.8,2,29,9.2,42.2
				c4.2,7.6,10,13.7,17.9,17.7C875,247.6,875.6,247.8,876.3,248z"/>
		</g>
		<g>
			<path fill="#00B0F0" stroke="#000000" stroke-width="1.0905" stroke-miterlimit="10" d="M710.5,306.3c9.4,0,18.3,0,27.6,0
				c-1-5.1-2-9.9-3-15c0.9,0.3,1.5,0.5,2.1,0.8c28.2,14.1,55.4,30,80.4,49.4c7.6,5.9,14.9,12.1,20.7,20c2.3,3.2,4.5,6.5,4.5,10.7
				c0,3.6-1.6,5.3-5.2,5.6c-5,0.4-9.7-1.3-14.2-3c-16.2-6.3-31.2-14.8-45.8-24.1c-21.9-14-43.5-28.5-65.2-42.8
				C711.8,307.4,711.4,307,710.5,306.3z"/>
			<path fill="#00B0F0" stroke="#000000" stroke-width="1.0905" stroke-miterlimit="10" d="M692.1,316.2c3.9-0.2,7.8-0.5,11.9-0.7
				c0.3-2.7,0.6-5.5,1-8.7c1.3,0.9,2.3,1.5,3.2,2.2c26.2,18.2,52.6,36,80.2,51.9c4.2,2.4,8.4,4.7,12.6,7c3.1,1.7,4.8,7.6,2.9,10.6
				c-1.4,2.3-3.8,2.6-6,2c-4.8-1.3-9.6-2.6-14.1-4.6c-15.4-7-29.8-16.1-43.8-25.6c-16.2-10.9-32.2-22.2-48.2-33.3
				C692,316.7,692,316.5,692.1,316.2z"/>
			<path fill="#00B0F0" stroke="#000000" stroke-width="1.0905" stroke-miterlimit="10" d="M667.5,325.6c2.3,0.2,4.6,0.3,6.9,0.7
				c2,0.3,3.2-0.1,3.7-2.3c0.5-2,1.5-3.9,2.4-6.1c0.9,0.6,1.7,1.1,2.5,1.7c22.7,16.7,45.6,33,69.7,47.6c5.1,3.1,10.3,6,15.5,9
				c3,1.7,4.6,7.6,2.7,10.5c-1.4,2.2-3.6,2.4-5.8,1.9c-2.7-0.5-5.5-1.2-8.1-2.3c-12.4-5-23.7-12.1-34.5-19.8
				c-18.3-13-36.3-26.4-54.4-39.7c-0.3-0.2-0.5-0.5-0.8-0.7C667.5,326,667.5,325.8,667.5,325.6z"/>
			<path fill="#00B0F0" stroke="#000000" stroke-width="1.0905" stroke-miterlimit="10" d="M647.4,334.6c3.2,0,5.9-0.1,8.6,0
				c1.7,0.1,2.6-0.3,3.1-2.1c0.5-2.1,1.4-4.1,2.2-6.5c1,0.7,1.9,1.3,2.7,1.9c21,16.4,42.2,32.3,64.7,46.7c2.7,1.8,5,7.7,4.2,10.9
				c-0.6,2.3-2.4,3.7-5.3,3c-3.2-0.7-6.5-1.7-9.5-3.1c-13.5-6.6-25.5-15.4-37.4-24.5c-10.7-8.2-21.2-16.7-31.8-25
				C648.4,335.5,648.1,335.2,647.4,334.6z"/>
			<path fill="#00B0F0" stroke="#000000" stroke-width="1.0905" stroke-miterlimit="10" d="M624.2,340.9c4.1,0,7.8,0,11.9,0
				c0.4-3.1,0.8-6.2,1.3-9.9c2.6,2.1,4.9,4,7.3,5.9c15.1,11.7,30.2,23.3,45.2,35.2c4.1,3.3,6.5,8,7.6,13.1c0.7,3.5-1.5,6.1-5,5.7
				c-3.5-0.4-7.2-1.2-10.3-2.7c-11-5.2-20.3-12.9-29.4-20.8c-9.1-8-17.9-16.4-26.8-24.6C625.4,342.3,624.9,341.7,624.2,340.9z"/>
			<path fill="#00B0F0" stroke="#000000" stroke-width="1.0905" stroke-miterlimit="10" d="M602.6,344c2.4,0.6,4.8,1,7.1,1.7
				c2,0.6,3.2,0.4,3.9-1.8c0.6-1.9,1.7-3.8,2.6-5.7c6.4,6.2,12.5,12.3,19,18.1c8.1,7.3,16.6,14.2,24.8,21.5c3.5,3.1,4.7,7.4,4,12
				c-0.5,3.1-3.3,5-6.2,4c-3.2-1-6.5-2.3-9.3-4.2c-10.2-6.7-18.7-15.4-27.2-24.1c-6.1-6.3-11.9-12.9-17.8-19.4
				c-0.5-0.5-0.8-1.1-1.3-1.6C602.4,344.4,602.5,344.2,602.6,344z"/>
			<path fill="#00B0F0" stroke="#000000" stroke-width="1.0905" stroke-miterlimit="10" d="M597.1,318.3
				c7.4-5.3,14.8-10.7,22.3-15.8c6.2-4.2,12.6-8.1,18.9-12.2c1.3-0.9,2.7-2,3.5-3.3c3.1-4.7,7.5-7,12.8-8
				c10.7-1.9,21.6-2.7,32.4-2.1c4.8,0.3,9.5,1.2,14.2,1.9c0,0.3,0.1,0.6,0.1,0.8c-34.7,13.1-69.3,26.2-104,39.3
				C597.3,318.7,597.2,318.5,597.1,318.3z"/>
			<path fill="#00B0F0" stroke="#000000" stroke-width="1.0905" stroke-miterlimit="10" d="M730.2,303.4c-9.8,0-19.2,0-28.6,0
				c-0.6,0-1.3-0.2-1.8-0.5c-5.7-4-11.3-8-17.3-12.2c0.8-0.4,1.3-0.7,1.8-0.9c6.8-2.6,13.6-5.3,20.5-7.7c1.5-0.5,3.6-0.6,5.1,0
				c5.2,1.9,10.4,4.2,15.5,6.4c0.9,0.4,1.7,1.5,1.9,2.5C728.5,294.9,729.3,299,730.2,303.4z"/>
			<path fill="#00B0F0" stroke="#000000" stroke-width="1.0905" stroke-miterlimit="10" d="M579.5,347c4.4,1,8.4,1.9,12.7,2.9
				c0.9-2.7,1.8-5.2,2.8-8c1.9,2.2,3.6,4.2,5.3,6c11.2,11.6,22.6,23.2,33.7,34.9c3.2,3.4,4,7.8,3.1,12.4c-0.5,2.2-2.6,3.7-4.7,3.2
				c-1.3-0.3-2.5-2.3-3.1-3.9c-0.7-1.5-0.6-3.4-0.9-5c-1.4-7.1-5.9-11.8-11.9-15.3c-8.3-4.8-16.5-9.7-24.8-14.6
				C585.3,355.9,583.7,354.2,579.5,347z"/>
			<path fill="#00B0F0" stroke="#000000" stroke-width="1.0905" stroke-miterlimit="10" d="M622.1,313.3c5.4-2,10.1-3.9,15-5.6
				c0.6-0.2,1.7,0.2,2.3,0.6c5.8,4.6,11.5,9.3,17.4,13.9c1.4,1.1,1.4,2,0.9,3.5c-1.8,5.7-1.8,5.7-7.7,5.1c-0.1,0-0.2-0.1-0.3,0
				c-5.7,0.9-9.7-1.8-13.6-5.5C631.8,321.3,627.1,317.6,622.1,313.3z"/>
			<path fill="#00B0F0" stroke="#000000" stroke-width="1.0905" stroke-miterlimit="10" d="M696,313.1c-4.5,0.2-8.8,0.5-13.2,0.7
				c-0.7,0-1.6-0.3-2.2-0.7c-6.2-4.6-12.3-9.2-18.5-13.8c-0.2-0.1-0.3-0.4-0.6-0.9c5.5-2.1,10.8-4.2,16.2-6.1
				c0.5-0.2,1.4,0.1,1.9,0.5c5.3,3.7,10.6,7.5,15.9,11.4c0.6,0.4,1.1,1.3,1.1,1.9C696.5,308.4,696.2,310.7,696,313.1z"/>
			<path fill="#00B0F0" stroke="#000000" stroke-width="1.0905" stroke-miterlimit="10" d="M641.8,305.9c5.1-1.9,9.7-3.8,14.5-5.5
				c0.6-0.2,1.7,0.2,2.4,0.7c5.9,4.4,11.8,9,17.7,13.4c1.2,0.9,1.3,1.6,0.8,2.9c-2.1,5.6-2.1,5.1-8,5c-5.9-0.1-10.4-2.5-14.7-6.3
				C650.5,312.6,646.2,309.5,641.8,305.9z"/>
			<path fill="#00B0F0" stroke="#000000" stroke-width="1.0905" stroke-miterlimit="10" d="M633.2,337.1c-4.2,0-8.1,0-11.9,0
				c-0.6,0-1.3-0.3-1.7-0.7c-5.2-5.2-10.3-10.5-15.8-16.2c4.9-1.9,9.4-3.6,13.9-5.2c0.6-0.2,1.6,0.2,2.1,0.7
				c4.4,3.7,8.8,7.5,13.1,11.3c0.7,0.6,1.2,1.8,1.1,2.7C633.9,332.4,633.4,335,633.2,337.1z"/>
			<path fill="#00B0F0" stroke="#000000" stroke-width="1.0905" stroke-miterlimit="10" d="M586.9,326.7c4.3-1.6,8.1-3.2,12-4.5
				c0.7-0.2,2,0.1,2.5,0.7c3.8,3.8,7.5,7.6,11,11.5c0.5,0.6,0.7,2,0.4,2.7c-2.1,5.4-2.1,5-7.6,4.1c-5.8-0.9-10.2-3.5-13.4-8.4
				C590.5,330.8,588.8,328.9,586.9,326.7z"/>
			<path fill="#00B0F0" stroke="#000000" stroke-width="1.0905" stroke-miterlimit="10" d="M572.1,337.4c4.1-3.3,7.7-6.2,11.5-9.3
				c2.8,3.4,5.5,6.5,8.1,9.8c0.4,0.5,0.5,1.4,0.3,2c-0.5,2-1.3,3.9-2,6.1c-4.4-1-8.8-1.6-12.9-3.2C575.2,342,574,339.5,572.1,337.4z
				"/>
			<path fill="#00B0F0" stroke="#000000" stroke-width="1.0905" stroke-miterlimit="10" d="M569.9,340c2.4,1.9,1.6,4.1,0.9,6.7
				c-1.7-1-3.1-1.9-4.8-2.9C567.4,342.5,568.6,341.3,569.9,340z"/>
		</g>
		<polygon fill="#EAD302" points="601.7,344.1 601.6,344 601.8,344 		"/>
		<path fill="#EAD201" d="M279.1,291.6c0-0.1,0-0.2,0.1-0.2c0,0,0.1,0,0.2,0C279.3,291.4,279.2,291.5,279.1,291.6
			C279.1,291.5,279.1,291.6,279.1,291.6z"/>
		<path fill="#EAD201" d="M434,154c-0.1,0-0.2-0.1-0.3-0.1c0,0,0.1,0,0.1,0C433.9,153.9,433.9,154,434,154
			C434,154.1,434,154,434,154z"/>
		<path fill="#FCFBEB" d="M549.3,157.7"/>
		<path fill="#FEFEFD" d="M282.4,696.5c0.1,0.1,0.3,0.2,0.4,0.3C282.6,696.6,282.5,696.5,282.4,696.5
			C282.4,696.4,282.4,696.5,282.4,696.5z"/>
		<path fill="#FEFEFD" d="M786.8,659.1c-0.2,0.1-0.4,0.1-0.7,0.2c0.1-0.2,0.1-0.4,0.2-0.7C786.5,658.8,786.7,659,786.8,659.1z"/>
		<path fill="#FEFEFD" d="M224.4,658.8c0.1,0.2,0.2,0.4,0.3,0.6c-0.2,0-0.5-0.1-0.7-0.1C224.1,659.1,224.2,658.9,224.4,658.8z"/>
		<path fill="#FEFEFD" d="M834.9,605.5c-0.2,0.2-0.5,0.4-0.7,0.5c0.1-0.3,0.2-0.7,0.3-1C834.6,605.2,834.7,605.4,834.9,605.5z"/>
		<path fill="#FEFEFD" d="M875.9,541.6c-0.1,0.2-0.3,0.4-0.4,0.6c0-0.3,0-0.6,0.1-0.9C875.7,541.4,875.8,541.5,875.9,541.6z"/>
		<polygon fill="#FEFEFD" points="135.5,542.3 135.3,542.4 135.3,542.2 		"/>
		<path fill="#FCFBEB" d="M732.1,216.4c-0.1,0-0.1-0.1-0.2-0.1c0.1-0.1,0.1-0.1,0.2-0.2c0.1,0.1,0.1,0.1,0.2,0.2
			C732.2,216.3,732.2,216.4,732.1,216.4z"/>
		<path fill="#FCFBEB" d="M279.1,216.6c-0.2-0.1-0.3-0.1-0.5-0.2c0.1-0.1,0.2-0.1,0.3-0.2C279,216.3,279,216.4,279.1,216.6
			C279.1,216.6,279.1,216.6,279.1,216.6z"/>
		<path fill="#FCFBEB" d="M277.9,215.8c-0.1,0-0.1,0.1-0.2,0.1c-0.1,0-0.1-0.1-0.2-0.1c0.1,0,0.1-0.1,0.2-0.1
			C277.8,215.6,277.9,215.7,277.9,215.8z"/>
		<path fill="#FCFBEB" d="M369.3,271.4c0.1,0.1,0.2,0.2,0.4,0.3c-0.2,0-0.4-0.1-0.6-0.1C369.1,271.6,369.3,271.4,369.3,271.4z"/>
		<path fill="#FEFEFD" d="M889.6,290.6c-0.1-0.3-0.1-0.6-0.2-0.9c0.1,0,0.1,0,0.2,0c0,0.3,0.1,0.6,0.1,0.9
			C889.8,290.5,889.7,290.5,889.6,290.6z"/>
		<g>
			<path fill="#FFFFFF" d="M265.2,832.5L279,842l-43.3,62.8l-18,3.5L194.1,892l-3.2-18.1l9.9-14.3l13.9,9.5l-7.6,11l17.2,11.8
				L265.2,832.5z"/>
			<path fill="#FFFFFF" d="M320.2,864l5.5,17.6l-28.8,56.2l-17.4,5.8L254,930.5l-5.5-17.5l28.8-56.2l17.5-5.9L320.2,864z M309,877.4
				l-18.6-9.5L265.3,917l18.6,9.5L309,877.4z"/>
			<path fill="#FFFFFF" d="M337.8,872.2l15.6,6.3l-33.7,82.8l-15.6-6.3L337.8,872.2z"/>
			<path fill="#FFFFFF" d="M398.3,893.9l16.1,4.9l-25.9,85.6l-18.1-5.5l-6.5-55.2l-14.7,48.7l-16.1-4.9l25.9-85.6l18.1,5.5l6.5,55.2
				L398.3,893.9z"/>
			<path fill="#FFFFFF" d="M456.2,906.2l16.6,2.6L461,984.2l-14.7,11l-28.3-4.4l-10.7-14.9l11.8-75.4l16.6,2.6l-11.1,71.4l20.5,3.2
				L456.2,906.2z"/>
			<path fill="#FFFFFF" d="M518.4,910.3l16.8,0.1l-0.6,89.4l-18.9-0.1l-21.9-51.1l-0.3,50.9l-16.8-0.1l0.6-89.4l18.9,0.1l21.9,51.1
				L518.4,910.3z"/>
			<path fill="#FFFFFF" d="M541,909.5l16.7-1.7l9.2,88.9l-16.7,1.7L541,909.5z"/>
			<path fill="#FFFFFF" d="M608,899.2l3.3,16.8l-27.3,5.4l3.7,18.7l21.8-4.3l3.3,16.7l-21.8,4.3l7.1,35.5l-16.5,3.3l-17.4-87.7
				L608,899.2z"/>
			<path fill="#FFFFFF" d="M652.5,885.4l16.4,8.3l20.3,59.8l-8,16.5l-27.2,9.2l-16.4-8.3l-20.3-59.8l7.9-16.6L652.5,885.4z
				 M654.3,902.9l-19.7,6.7l17.8,52.2l19.7-6.7L654.3,902.9z"/>
			<path fill="#FFFFFF" d="M706.9,861.4l17.4,6.1l12,24.2l-2,6.2l6.1,2l17.7,35.9l-15,7.4l-15-30.5l-18.7,9.2l15,30.5l-15.1,7.4
				l-39.5-80.2L706.9,861.4z M711,878.5l-18.7,9.2l9.4,19l18.7-9.2L711,878.5z"/>
			<path fill="#FFFFFF" d="M762.3,828.2l15.2-10l49.1,74.7l-14.1,9.2l-19.9-30.3l13,34.8l-12.1,7.9l-26.8-25.7l19.9,30.3l-14.1,9.2
				l-49.1-74.7l15.2-10l35.8,28.8L762.3,828.2z"/>
		</g>
		<path fill="none" d="M161.5,755.1"/>
		<path fill="none" stroke="#193305" stroke-width="1.005" stroke-miterlimit="10" d="M524.4,90.2"/>
		<path fill="none" stroke="#193305" stroke-width="1.005" stroke-miterlimit="10" d="M524.4,90.2"/>
		<path fill="none" stroke="#193305" stroke-width="1.005" stroke-miterlimit="10" d="M524.4,90.2"/>
		<path fill="#385723" stroke="#182D07" stroke-width="1.1177" stroke-miterlimit="10" d="M432.6,145.4c5.8,2.3,10.1,6.3,14,11.2
			c-0.4-0.9-0.6-1.8-1.1-2.7c-4.5-7.4-11.2-12.2-19-15.1c-11-4.1-22.3-7.4-33.4-11.4c-7.7-2.8-15.3-6-22.9-9.3
			c-3.5-1.5-6.4-4.3-6.4-8.4c0-2.7,0.6-5.6,1.9-8c4.7-9.2,12-16.2,20.9-21.5c6.9-4.1,14.1-7.8,21.5-11c7-3.1,13.5-6.8,19.5-11.6
			c3-2.4,6-4.4,10.2-4.6c2.1-0.1,4.3-1.6,6.2-2.9c7.6-4.9,15.3-9.6,24.4-10.9c2.1-0.3,4.3-0.2,6.4-0.3c1.1-0.1,2.1-0.2,3.5-0.4
			c-1-3.2-1.9-6.1-2.9-9c-1.5-4.2-0.4-7.5,3.1-10.3c11-8.8,23.4-10.9,36.7-7.5c6.7,1.7,11,6.5,13.5,13c1.2,3.1,1,6-0.5,8.8
			c-2.8,5.1-1.4,10.5-1.5,15.8c0,0.5,0.8,1.2,1.3,1.5c2.7,1.6,3.5,3.4,2.8,6.5c-0.3,1.3-0.6,2.5-0.7,3.8c-0.2,2.7-1.5,4.6-3.9,5.9
			c-2.7,1.4-4.3,5.5-3.2,8.4c0.3,0.8,1.6,1.5,2.5,1.6c4.4,0.3,7.1,2.2,9.2,6.3c3,5.8,8.4,8.7,14.8,9.8c10.2,1.7,19.4,5.7,27.6,11.8
			c1.7,1.3,3.2,3.1,4.2,5c5,9.6,7.3,20,8.5,30.6c1.4,13,2.1,26,1.4,39.1c-0.2,3.1,0.3,6.3,0.2,9.4c-0.2,6.5-0.3,13-1.1,19.4
			c-1.2,9.4-2.7,18.7-4.4,28c-1.5,8-4.2,10.9-11.2,13.2c-1.5,6.2-3.3,12.3-4.5,18.5c-0.9,4.6-1,9.4-1.5,14.1c-0.1,1,0,2.1-0.4,3
			c-1.9,5.6-3.9,11.1-5.8,16.7c-0.7,2.1-1.1,4.3-1.8,6.4c-0.5,1.6-1.4,3-1.8,4.6c-0.3,1-0.2,2.2-0.1,3.2c1,9.2,2.5,18.4,2.8,27.6
			c0.2,5.2-0.8,10.6-2.3,15.6c-4.8,15.9-7.5,32-7.7,48.7c-0.1,15.4-1.1,30.8-4.2,45.9c-0.8,3.8-2.2,7.1-5.1,9.9
			c-6.5,6.6-9.4,15.1-10.5,24c-0.6,4.9-0.8,10-0.6,14.9c0.2,5.5,2.7,10.3,6.2,14.6c5.7,7.1,10.3,14.8,11.9,23.9
			c1.1,6.4,0.4,12.4-4.6,17.3c-3.9,3.8-8.2,4.4-12.9,1.5c-5.9-3.7-10-9.1-13.5-14.9c-3.6-5.8-6.8-11.9-10.1-17.9
			c-1.5-2.7-2.7-3-4.2-0.2c-2,3.6-3.7,7.5-5.1,11.4c-3.5,9.2-9.6,16.1-18,20.8c-9.3,5.3-18.1,0-18.3-10.6
			c-0.3-10.2,3.9-19.1,8.8-27.7c1.3-2.3,2.9-4.6,4.6-6.6c2.6-3,3.7-6.4,3.9-10.2c0.5-8-0.7-15.8-4.1-23c-1.7-3.6-4.1-7.2-7.2-9.7
			c-5.3-4.4-7-9.9-7.1-16.4c-0.1-10-0.7-20-0.5-30c0.3-16.6-3.1-32.6-6.5-48.7c-1.5-7.3-3.3-14.7-3.9-22.1c-0.5-6,0.5-12.2,1-18.3
			c1.3-14.7,2.8-29.4,4.2-44c0.7-7-0.5-13.7-3-20.7c11.3,1.6,22.4,2.5,32,1.3c-9.4-1.2-20.2-2.2-30.9-3.9c-6.9-1.1-13.7-3-20.5-4.9
			c-4.7-1.4-5.3-2.9-3.7-7.5c2.2-6.2,4.7-12.3,7.1-18.4c4.1-10.6,6.4-21.5,5-32.9c-1.9-15.2-3.5-30.4-5.6-45.5
			C435.8,154.8,434,150.1,432.6,145.4L432.6,145.4z M551.3,149.3c-0.1-0.1-0.3-0.2-0.4-0.2C551,149.1,551.2,149.2,551.3,149.3
			c0.1,0.2,0.2,0.5,0.3,0.8c0.8,3.3,2.4,6.6,2.4,9.9c0.3,22.1,0.3,44.3,0.3,66.5c0,5.7-0.2,11.3-0.2,17c0,3.7,0.4,7.4,0.5,11
			c0.1,1.6,0,3.2,0,4.8c1.2-0.5,1.9-0.9,2.1-1.6c1.6-4.6,3.5-9.2,1.2-14.2c-0.6-1.2-1.1-2.6-1.2-4c-0.3-6.7-0.7-13.5-0.7-20.2
			c0-11.9,0.3-23.7,0.4-35.6c0-10.8-0.4-21.7,0-32.5c0.1-4.4,1.6-8.7,2.5-13c-1.4,2.4-2.5,5-3.1,7.7c-0.6,2.8-0.9,5.6-1.3,8.3
			c-0.9-1.5-1.7-3-2.6-4.4C551.7,149.6,551.5,149.5,551.3,149.3z M501.7,436.2c0-0.3-0.1-0.6,0-0.1
			C501.4,435.7,501.6,435.9,501.7,436.2c0.7,3.5,1.4,7,2.1,10.5c0.1,2.5,0.3,5,0.4,7.5c0,6.1,0.6,12.2-2.7,17.9
			c-0.7,1.2-0.8,2.9-0.7,4.3c0.3,6.5,0.5,13,1.1,19.4c0.3,3.6,0.9,7.2,4,10.7c1-2.9,2.3-5.2,2.5-7.6c0.6-8.1,0.9-16.2,1.2-24.4
			c0.1-2.9-0.6-5.5-2.5-7.7c-0.7-0.8-1.2-2-1.3-3c-0.4-8.2-0.8-16.5,1.5-24.6c0.8-2.3,1.6-4.6,2.4-6.9c-0.3-0.1-0.5-0.2-0.8-0.3
			c-0.8,2.4-1.7,4.9-2.5,7.3c-0.4,1.7-0.8,3.3-1.2,5c-0.4-0.5-0.9-0.9-1.1-1.5C503.2,440.8,502.4,438.5,501.7,436.2z M443.1,87.6
			c-1-3-0.2-4.3,3.7-4.5c7.9-0.4,15.7-0.6,23.6-0.5c2,0,4.6,0.8,5.8,2.2c1.8,2.1,3.3,1.6,5,0.8c1.8-0.9,3.4-2.2,5.2-3.3
			c1.5-1,1.7-1.9,0.4-3.3c-0.6-0.6-1.2-1.8-1-2.4c1.2-3.7-1-5.7-3.4-7.7c-2.6-2.1-4.1-4.6-3.6-8.2c0.2-1.3-0.5-2.8-0.9-4.5
			c-2.8,1.6-5.2,3-7.7,4.5c0.8,0.3,1.6,0.3,2.2,0.7c1,0.7,2.4,1.6,2.5,2.5c0,0.9-1.3,2-2.3,2.7c-1,0.6-2.2,1-3.4,1.1
			c-4.4,0.6-8.2,2.5-11.9,5c-5,3.4-10.6,4.6-16.7,3.5c-0.9-0.2-2.3,0.5-3,1.2c-8.5,8.8-18.2,16-29.3,21.4c-1.2,0.6-2.4,1.1-3.6,1.7
			c5.6,0.2,11.1,0.2,15.6-3.8c1.7-1.5,3.9-2.5,6.1-3.3C431.8,91.2,437.4,89.5,443.1,87.6z M448.8,86.2c4.1-0.4,8.2-0.9,12.3-1.1
			c4.2-0.2,8.4,0,12.6,0C465.3,84.7,457,83.6,448.8,86.2z M559.5,137.4c0,0-0.1-0.1-0.1-0.2c-0.1,0.1-0.1,0.1-0.2,0.2
			c0,0.1,0.1,0.1,0.1,0.2C559.4,137.5,559.4,137.4,559.5,137.4z"/>
	</g>
</g>
</svg>